<svg width="20" height="20" viewBox="0 0 20 20" fill="none" xmlns="http://www.w3.org/2000/svg">
<path fill-rule="evenodd" clip-rule="evenodd" d="M3.54417 1.54121C4.5246 1.04166 5.80805 1.04166 8.37496 1.04166H11.625C14.1919 1.04166 15.4753 1.04166 16.4557 1.54121C17.3182 1.98063 18.0193 2.68179 18.4587 3.5442C18.9583 4.52463 18.9583 5.80808 18.9583 8.37499V11.625C18.9583 14.1919 18.9583 15.4754 18.4587 16.4558C18.0193 17.3182 17.3182 18.0194 16.4557 18.4588C15.4753 18.9583 14.1919 18.9583 11.625 18.9583H8.37496C5.80805 18.9583 4.5246 18.9583 3.54417 18.4588C2.68176 18.0194 1.9806 17.3182 1.54118 16.4558C1.04163 15.4754 1.04163 14.1919 1.04163 11.625V8.37499C1.04163 5.80808 1.04163 4.52463 1.54118 3.5442C1.9806 2.68179 2.68176 1.98063 3.54417 1.54121ZM4.99998 6.04165C4.6548 6.04165 4.37498 6.32147 4.37498 6.66665V9.58332V13.3333C4.37498 13.6785 4.6548 13.9583 4.99998 13.9583H7.29165C8.67236 13.9583 9.79165 12.839 9.79165 11.4583C9.79165 10.5503 9.30759 9.75541 8.58346 9.31751C8.81971 8.97967 8.95831 8.56851 8.95831 8.12498C8.95831 6.97439 8.02557 6.04165 6.87498 6.04165H4.99998ZM5.62498 10.2083H6.87498H7.29165C7.982 10.2083 8.54165 10.768 8.54165 11.4583C8.54165 12.1487 7.982 12.7083 7.29165 12.7083H5.62498V10.2083ZM6.87498 8.95832H5.62498V7.29165H6.87498C7.33522 7.29165 7.70831 7.66475 7.70831 8.12498C7.70831 8.58522 7.33522 8.95832 6.87498 8.95832ZM12.0833 6.04165C11.7381 6.04165 11.4583 6.32147 11.4583 6.66665C11.4583 7.01183 11.7381 7.29165 12.0833 7.29165H14.5835C14.9287 7.29165 15.2085 7.01183 15.2085 6.66665C15.2085 6.32147 14.9287 6.04165 14.5835 6.04165H12.0833ZM15.4166 11.4583H11.9272C11.998 11.8441 12.134 12.1148 12.2933 12.2968C12.518 12.5536 12.8536 12.7083 13.3333 12.7083C13.8119 12.7083 14.162 12.5505 14.3929 12.3966C14.5095 12.3189 14.5952 12.2422 14.6492 12.1883C14.676 12.1614 14.6945 12.1407 14.7045 12.129L14.7127 12.1192C14.9209 11.8481 15.3091 11.7943 15.5833 12C15.8595 12.2071 15.9154 12.5988 15.7083 12.875L15.2083 12.5C15.7083 12.875 15.7081 12.8752 15.708 12.8755L15.7076 12.876L15.7068 12.877L15.705 12.8794L15.7007 12.885L15.689 12.8998C15.6799 12.9112 15.6681 12.9256 15.6536 12.9425C15.6245 12.9764 15.5844 13.0208 15.5331 13.0721C15.4308 13.1744 15.2821 13.3061 15.0863 13.4367C14.6921 13.6994 14.1048 13.9583 13.3333 13.9583C12.563 13.9583 11.857 13.6964 11.3525 13.1199C10.8576 12.5543 10.625 11.764 10.625 10.8333C10.625 9.33755 11.8375 8.12498 13.3333 8.12498C14.8291 8.12498 16.0416 9.33755 16.0416 10.8333C16.0416 11.1785 15.7618 11.4583 15.4166 11.4583ZM12.0153 10.2083C12.2494 9.71562 12.7516 9.37498 13.3333 9.37498C13.9151 9.37498 14.4173 9.71562 14.6513 10.2083H12.0153Z" fill="#171717"/>
</svg>
