<svg width="20" height="20" viewBox="0 0 20 20" fill="none" xmlns="http://www.w3.org/2000/svg">
<path d="M8.37502 1.04166C5.80811 1.04166 4.52466 1.04166 3.54423 1.54121C2.68182 1.98063 1.98066 2.68179 1.54124 3.5442C1.04169 4.52463 1.04169 5.80808 1.04169 8.37499V11.625C1.04169 14.1919 1.04169 15.4754 1.54124 16.4558C1.98066 17.3182 2.68182 18.0193 3.54423 18.4588C4.52466 18.9583 5.80811 18.9583 8.37502 18.9583H11.625C14.1919 18.9583 15.4754 18.9583 16.4558 18.4588C17.3182 18.0193 18.0194 17.3182 18.4588 16.4558C18.9584 15.4754 18.9584 14.1919 18.9584 11.625V8.37499C18.9584 5.80808 18.9584 4.52463 18.4588 3.5442C18.0194 2.68179 17.3182 1.98063 16.4558 1.54121C15.4754 1.04166 14.1919 1.04166 11.625 1.04166H8.37502Z" fill="white"/>
<path d="M11.25 10.8334C11.25 12.5 12.0833 13.3334 13.3333 13.3334C14.5833 13.3334 15.2083 12.5 15.2083 12.5M11.25 10.8334C11.25 9.68276 12.1827 8.75002 13.3333 8.75002C14.4839 8.75002 15.4167 9.68276 15.4167 10.8334H11.25ZM12.0833 6.66669H14.5835M5 9.58335H6.875C7.68041 9.58335 8.33333 8.93044 8.33333 8.12502C8.33333 7.31961 7.68041 6.66669 6.875 6.66669H5V9.58335ZM5 9.58335H7.29167C8.3272 9.58335 9.16667 10.4228 9.16667 11.4584C9.16667 12.4939 8.3272 13.3334 7.29167 13.3334H5V9.58335Z" stroke="#171717" stroke-width="1.25" stroke-linecap="round" stroke-linejoin="round"/>
</svg>
