<svg width="20" height="20" viewBox="0 0 20 20" fill="none" xmlns="http://www.w3.org/2000/svg">
<path fill-rule="evenodd" clip-rule="evenodd" d="M6.52234 1.74172C3.76291 2.90517 1.70826 5.41129 1.17673 8.44175C4.07007 8.70999 7.01271 8.30521 9.75017 7.22541C8.81326 5.34112 7.73721 3.50824 6.52234 1.74172ZM1.04712 9.68508C1.04351 9.78961 1.04169 9.89459 1.04169 9.99999C1.04169 12.2416 1.86501 14.2909 3.22576 15.862C5.29923 13.304 8.10216 11.4487 11.2275 10.5221C10.9355 9.79344 10.6238 9.07084 10.2924 8.35508C7.34243 9.53412 4.16664 9.97652 1.04712 9.68508ZM4.11346 16.7529C5.68774 18.1264 7.74673 18.9583 10 18.9583C11.2584 18.9583 12.4562 18.6988 13.5429 18.2305C13.0882 16.0166 12.4664 13.8309 11.6779 11.6928C8.71273 12.5503 6.05606 14.312 4.11346 16.7529ZM14.6945 17.6312C16.8716 16.2891 18.431 14.0415 18.8475 11.4134C16.832 10.9988 14.8156 11.0112 12.8999 11.3944C13.646 13.4369 14.2443 15.5212 14.6945 17.6312ZM18.9569 10.1604C18.9579 10.107 18.9584 10.0536 18.9584 9.99999C18.9584 7.75612 18.1334 5.70494 16.7702 4.13321C15.1648 5.70091 13.3597 6.94105 11.4381 7.85445C11.7977 8.63244 12.1347 9.41828 12.4492 10.211C14.541 9.76422 16.7481 9.72632 18.9569 10.1604ZM15.8876 3.24792C14.3132 1.87394 12.2538 1.04166 10 1.04166C9.22363 1.04166 8.47031 1.14042 7.75193 1.32608C8.93128 3.06918 9.98015 4.87395 10.8983 6.72692C12.6961 5.87265 14.385 4.71319 15.8876 3.24792Z" fill="#111827"/>
</svg>
