<svg width="20" height="20" viewBox="0 0 20 20" fill="none" xmlns="http://www.w3.org/2000/svg">
<path fill-rule="evenodd" clip-rule="evenodd" d="M8.37502 1.04166C5.80811 1.04166 4.52466 1.04166 3.54423 1.54121C2.68182 1.98063 1.98066 2.68179 1.54124 3.5442C1.04169 4.52463 1.04169 5.80808 1.04169 8.37499V11.625C1.04169 14.1919 1.04169 15.4754 1.54124 16.4558C1.98066 17.3182 2.68182 18.0193 3.54423 18.4588C4.52466 18.9583 5.80811 18.9583 8.37502 18.9583H11.625C14.1919 18.9583 15.4754 18.9583 16.4558 18.4588C17.3182 18.0193 18.0194 17.3182 18.4588 16.4558C18.9584 15.4754 18.9584 14.1919 18.9584 11.625V8.37499C18.9584 5.80808 18.9584 4.52463 18.4588 3.5442C18.0194 2.68179 17.3182 1.98063 16.4558 1.54121C15.4754 1.04166 14.1919 1.04166 11.625 1.04166H8.37502ZM6.04169 9.99999C6.04169 7.81386 7.81389 6.04166 10 6.04166C12.1861 6.04166 13.9584 7.81386 13.9584 9.99999C13.9584 12.1861 12.1861 13.9583 10 13.9583C7.81389 13.9583 6.04169 12.1861 6.04169 9.99999ZM15.4167 5.83332C16.107 5.83332 16.6667 5.27368 16.6667 4.58332C16.6667 3.89297 16.107 3.33332 15.4167 3.33332C14.7263 3.33332 14.1667 3.89297 14.1667 4.58332C14.1667 5.27368 14.7263 5.83332 15.4167 5.83332Z" fill="#171717"/>
</svg>
