<svg width="20" height="20" viewBox="0 0 20 20" fill="none" xmlns="http://www.w3.org/2000/svg">
<path fill-rule="evenodd" clip-rule="evenodd" d="M3.54423 1.54121C4.52466 1.04166 5.80811 1.04166 8.37502 1.04166H11.625C14.1919 1.04166 15.4754 1.04166 16.4558 1.54121C17.3182 1.98063 18.0194 2.68179 18.4588 3.5442C18.9584 4.52463 18.9584 5.80808 18.9584 8.37499V11.625C18.9584 14.1919 18.9584 15.4754 18.4588 16.4558C18.0194 17.3182 17.3182 18.0194 16.4558 18.4588C15.4754 18.9583 14.1919 18.9583 11.625 18.9583H8.37502C5.80811 18.9583 4.52466 18.9583 3.54423 18.4588C2.68182 18.0194 1.98066 17.3182 1.54124 16.4558C1.04169 15.4754 1.04169 14.1919 1.04169 11.625V8.37499C1.04169 5.80808 1.04169 4.52463 1.54124 3.5442C1.98066 2.68179 2.68182 1.98063 3.54423 1.54121ZM6.25 5.20833C5.6747 5.20833 5.20833 5.6747 5.20833 6.25C5.20833 6.8253 5.6747 7.29167 6.25 7.29167C6.8253 7.29167 7.29167 6.8253 7.29167 6.25C7.29167 5.6747 6.8253 5.20833 6.25 5.20833ZM6.875 9.16667C6.875 8.82149 6.59518 8.54167 6.25 8.54167C5.90482 8.54167 5.625 8.82149 5.625 9.16667V15C5.625 15.3452 5.90482 15.625 6.25 15.625C6.59518 15.625 6.875 15.3452 6.875 15V9.16667ZM10.2083 11.6667C10.2083 10.6311 11.0478 9.79167 12.0833 9.79167C13.1189 9.79167 13.9583 10.6311 13.9583 11.6667V15C13.9583 15.3452 14.2382 15.625 14.5833 15.625C14.9285 15.625 15.2083 15.3452 15.2083 15V11.6667C15.2083 9.94078 13.8092 8.54167 12.0833 8.54167C10.3574 8.54167 8.95833 9.94078 8.95833 11.6667V15C8.95833 15.3452 9.23816 15.625 9.58333 15.625C9.92851 15.625 10.2083 15.3452 10.2083 15V11.6667Z" fill="#171717"/>
</svg>
