<svg width="20" height="20" viewBox="0 0 20 20" fill="none" xmlns="http://www.w3.org/2000/svg">
<path d="M13.8917 1.875C11.419 1.875 9.39343 3.84168 9.39343 6.29518C9.39343 6.35281 9.39467 6.4104 9.39713 6.46792C6.67446 6.1184 4.25813 4.74964 2.6024 2.78409C2.473 2.63047 2.27766 2.54841 2.07738 2.56352C1.87709 2.57863 1.69627 2.68907 1.59139 2.86036C0.772791 4.19719 0.813862 5.84081 1.51693 7.15446C1.19999 7.18199 0.946076 7.4567 0.946076 7.77711C0.946076 9.10133 1.54261 10.3228 2.50877 11.1522C2.3367 11.3133 2.26798 11.5688 2.33996 11.7967C2.7354 13.0485 3.68209 14.039 4.88886 14.5317C3.66049 15.1152 2.27915 15.3486 0.909298 15.1808C0.619628 15.1454 0.343963 15.3151 0.245196 15.5897C0.14643 15.8643 0.250857 16.1707 0.49677 16.3279C2.2954 17.4772 4.44126 18.125 6.77228 18.125C14.2947 18.125 18.4231 12.0373 18.4231 6.72892V6.32525L18.4391 6.31037C18.5988 6.16084 18.8031 5.93857 19.0045 5.63258C19.4109 5.01501 19.7916 4.0772 19.7916 2.75301C19.7916 2.52884 19.6716 2.32184 19.477 2.21052C19.2824 2.0992 19.0431 2.10061 18.8499 2.21423C18.263 2.55926 17.5956 2.83161 16.9175 3.00703C16.0951 2.28313 15.0418 1.875 13.8917 1.875Z" fill="#171717"/>
</svg>
